<svg xmlns="http://www.w3.org/2000/svg" xmlns:xlink="http://www.w3.org/1999/xlink" viewBox="0 0 50.34 50.34"><defs><style>.cls-1{fill:#fff;}.cls-2{fill:#ff7126;stroke:#fff;stroke-miterlimit:10;stroke-width:2px;}.cls-3{clip-path:url(#clip-path);}</style><clipPath id="clip-path"><path class="cls-1" d="M38.37,17.38a1.72,1.72,0,0,0-.79.36,2.43,2.43,0,0,0-.8,1.49A2.5,2.5,0,0,0,37,20.87a1.78,1.78,0,0,0,1.32.95,2.25,2.25,0,0,0,.68,0,1.34,1.34,0,0,0,.59-.24l-.09.48.86,0,.41-2.34L39,19.46l-.13.72.94.16a.88.88,0,0,1-.44.64,1.14,1.14,0,0,1-1.5-.36,1.59,1.59,0,0,1-.18-1.19,1.7,1.7,0,0,1,.59-1.12,1.08,1.08,0,0,1,.88-.21,1.14,1.14,0,0,1,.62.31A.7.7,0,0,1,40,19l.89.16a1.39,1.39,0,0,0-.43-1.18,2.18,2.18,0,0,0-1.18-.57,2.51,2.51,0,0,0-.43,0,2.23,2.23,0,0,0-.47.05"/></clipPath></defs><title>Administrador Light</title><g id="Producto"><circle class="cls-2" cx="25.17" cy="25.17" r="24.17"/><path class="cls-1" d="M38.37,17.38a1.72,1.72,0,0,0-.79.36,2.43,2.43,0,0,0-.8,1.49A2.5,2.5,0,0,0,37,20.87a1.78,1.78,0,0,0,1.32.95,2.25,2.25,0,0,0,.68,0,1.34,1.34,0,0,0,.59-.24l-.09.48.86,0,.41-2.34L39,19.46l-.13.72.94.16a.88.88,0,0,1-.44.64,1.14,1.14,0,0,1-1.5-.36,1.59,1.59,0,0,1-.18-1.19,1.7,1.7,0,0,1,.59-1.12,1.08,1.08,0,0,1,.88-.21,1.14,1.14,0,0,1,.62.31A.7.7,0,0,1,40,19l.89.16a1.39,1.39,0,0,0-.43-1.18,2.18,2.18,0,0,0-1.18-.57,2.51,2.51,0,0,0-.43,0,2.23,2.23,0,0,0-.47.05"/><g class="cls-3"><rect class="cls-1" x="36.67" y="17.33" width="4.26" height="4.78"/></g><rect class="cls-1" x="38.11" y="17.36" width="0.37" height="9.62" transform="translate(9.79 56.02) rotate(-79.98)"/><polygon class="cls-1" points="35.16 20.79 35.15 20.84 36.34 21.36 36.63 21.65 40.44 22.33 40.81 22.15 42.09 22.07 42.11 22.02 35.16 20.79"/><path class="cls-1" d="M39.6,22.66l-1.69-.11,0,.38a6.84,6.84,0,0,1-3.33-.25,9.46,9.46,0,0,1-4.23-2.49l-1.26,2.09A14.29,14.29,0,0,0,34.78,24a10.06,10.06,0,0,0,4.81-.67Z"/><path class="cls-1" d="M17.29,13.36l.4,1.05a1.85,1.85,0,0,0-.06.62,5.63,5.63,0,0,0,2.18,2.34c2.57,1.63,4.31.81,4.31.81l.11,2.95A10.15,10.15,0,0,1,19,18.47c-2.4-2.15-2.62-4-2.62-4Z"/><path class="cls-1" d="M28.53,38.32s-.36,6.08-.37,6.29a3.77,3.77,0,0,0,.72,1.94l-3.53,0,.81-8.73L26,35.14l2.44.78Z"/><path class="cls-1" d="M22.62,37.48s-3.38,5.07-3.48,5.24a3.77,3.77,0,0,0-.36,2l-2.62-2.22,4.68-6.71,1.05-2,3,1Z"/><path class="cls-1" d="M28.73,35.76l1.63-14.25,0-1.45L29,19.81l-.13-1h0l-.08-.36a.82.82,0,0,1-.55.14c-.74,0-2-.18-2.7-.16a4.22,4.22,0,0,0-1.15.1l1.06,5.95-3.87,9Z"/><path class="cls-1" d="M30.41,18.87l-1.32-.08.1.81,1.2.21Zm-.69.55a.14.14,0,1,1,.17-.11.15.15,0,0,1-.17.11"/><path class="cls-1" d="M16,13.37v.56l.68-.23-.33-.44A4.59,4.59,0,0,0,19,7.49a5.24,5.24,0,0,0-3.07,0c-1.45.4-2.27,1.88-3.29,2.51a3.79,3.79,0,0,1-2.32.49A4.59,4.59,0,0,0,16,13.37"/><path class="cls-1" d="M30,15.61a1.23,1.23,0,0,0,.55,1.06s-.59.15-.68.4a1.4,1.4,0,0,1-1.72,1A1.92,1.92,0,0,1,27,15.68a1.73,1.73,0,0,1,0-.18v0a1.41,1.41,0,0,0-.66-1.33,1.19,1.19,0,0,1-1.44-1.88,1.53,1.53,0,0,1,1.93-2.3,1.18,1.18,0,0,1,2,.84s0,.09,0,.13a3,3,0,0,1,.42.78,7.53,7.53,0,0,1,.23,2.47,2.06,2.06,0,0,1,.5,1.43"/></g></svg>